<svg width="16" height="16" viewBox="0 0 16 16" fill="none" xmlns="http://www.w3.org/2000/svg">
    <path fill-rule="evenodd" clip-rule="evenodd"
        d="M7.33268 12.0013C7.33268 12.7346 6.73268 13.3346 5.99935 13.3346C5.26602 13.3346 4.66602 12.7346 4.66602 12.0013C4.66602 11.268 5.26602 10.668 5.99935 10.668C6.73268 10.668 7.33268 11.268 7.33268 12.0013ZM5.99935 6.66797C5.26602 6.66797 4.66602 7.26797 4.66602 8.0013C4.66602 8.73463 5.26602 9.33463 5.99935 9.33463C6.73268 9.33463 7.33268 8.73463 7.33268 8.0013C7.33268 7.26797 6.73268 6.66797 5.99935 6.66797ZM5.99935 2.66797C5.26602 2.66797 4.66602 3.26797 4.66602 4.0013C4.66602 4.73464 5.26602 5.33464 5.99935 5.33464C6.73268 5.33464 7.33268 4.73464 7.33268 4.0013C7.33268 3.26797 6.73268 2.66797 5.99935 2.66797ZM9.99935 5.33464C10.7327 5.33464 11.3327 4.73464 11.3327 4.0013C11.3327 3.26797 10.7327 2.66797 9.99935 2.66797C9.26602 2.66797 8.66602 3.26797 8.66602 4.0013C8.66602 4.73464 9.26602 5.33464 9.99935 5.33464ZM9.99935 6.66797C9.26602 6.66797 8.66602 7.26797 8.66602 8.0013C8.66602 8.73463 9.26602 9.33463 9.99935 9.33463C10.7327 9.33463 11.3327 8.73463 11.3327 8.0013C11.3327 7.26797 10.7327 6.66797 9.99935 6.66797ZM9.99935 10.668C9.26602 10.668 8.66602 11.268 8.66602 12.0013C8.66602 12.7346 9.26602 13.3346 9.99935 13.3346C10.7327 13.3346 11.3327 12.7346 11.3327 12.0013C11.3327 11.268 10.7327 10.668 9.99935 10.668Z"
        fill="currentColor" />
</svg>